<svg width="1440" height="420" viewBox="0 0 1440 420" fill="none" xmlns="http://www.w3.org/2000/svg">
<g clip-path="url(#clip0)">
<path d="M1439 0H-1V420H1439V0Z" fill="#F6F8FC"/>
<path d="M1206.3 281.4C1331.8 267.2 1387.4 256.5 1439 224.2V0C1289 142.4 1283.8 107.3 1039.8 154.3C795.9 201.3 810.5 419.6 810.5 419.6L1001.1 419.7C1028.5 358.3 1086 295 1206.3 281.4Z" fill="#50c878"/>
<path d="M1123.6 139.9C1123.6 139.9 1123.1 101.4 1125.5 107C1134.8 128.8 1154.5 115.8 1162.8 147.9C1168.7 170.8 1152.9 190.3 1177.7 201.4C1202 212.3 1204.3 258.4 1163 268.8C1121.8 279.3 1075.6 273.2 1075.6 273.2L1021.3 263.3C1021.3 263.3 973.1 273.8 951.8 255.6C930.5 237.3 934.9 198.9 962.6 191C982.3 185.4 976.1 164 975.6 149.9C975.1 135.7 976.9 121.7 999.4 108.5C1020.1 96.5998 1123.6 139.9 1123.6 139.9Z" fill="#2B3378"/>
<path d="M1102.7 126.6C1102.7 126.6 1097.3 139.6 1107.5 144.7C1118.1 150 1118.2 157 1116.5 175.4C1114.9 193.7 1132.4 191.9 1145.8 202.6C1159.2 213.3 1164.5 258 1137.7 265.5C1137.7 265.5 1084.4 284.7 1054.5 272.4C1024.5 260.1 1008.3 276.8 989.3 260.8C966 241.1 966.8 205.5 987 194.7C1006 184.5 998 180.5 997.4 166.9C996.8 153.3 1007.7 150.5 1013.5 147.1C1019.2 143.7 1022.9 134.1 1023 128.9C1023 123.5 1102.7 126.6 1102.7 126.6Z" fill="#292E6B"/>
<path d="M1149.2 215.2C1137.3 204.8 1095.5 194.5 1086 189.3C1076.6 184 1078.4 152.3 1078.4 152.3L1059.1 152.2L1039.9 151.6C1039.9 151.6 1040.6 183.4 1031 188.3C1021.4 193.2 979.2 202 967 212C954.7 222 966.4 285.1 966.4 285.1L1030 285.6L1057.1 276.2L1083.8 286.5L1147.4 288.2C1147.3 288.4 1161.1 225.6 1149.2 215.2Z" fill="#FABCA3"/>
<path d="M1120.9 203.1L1086 189.3L1061 252.6L1032.6 188.4L990.4 201.4L993 420H1130.9L1120.9 203.1Z" fill="#50c878"/>
<path d="M1439 224.2C1387.4 256.5 1331.8 267.2 1206.3 281.4C1086 295 1028.5 358.3 1001.2 419.7L1439 420V224.2Z" fill="white"/>
<path d="M1212.2 183.4L1188 244.2L1157.6 320.7L1146.5 348.7L1094.5 313.4L1132.1 229.3C1137.3 217.6 1146.9 208.5 1158.9 203.9L1181.6 195.2L1212.2 183.4Z" fill="#EAF0F9"/>
<path d="M1274.8 182.3L1299 243.1L1329.4 319.6L1340.5 347.6L1392.5 312.3L1354.9 228.2C1349.7 216.5 1340.1 207.4 1328.1 202.8L1305.4 194.1L1274.8 182.3Z" fill="#EAF0F9"/>
<path d="M1094.5 313.4L1073.9 358.9C1067.6 372.8 1070.4 389.1 1080.9 400.1L1099.9 420H1170.2L1134.7 372.1L1146.6 348.7L1094.5 313.4Z" fill="#FABCA3"/>
<path d="M1282.6 420L1274.8 182.3L1212.2 183.4L1202.3 420H1282.6Z" fill="#50c878"/>
<path d="M1186.3 240.7C1170.8 273.2 1158 297.4 1158 297.4C1158 297.4 1157.9 307.1 1157.6 320.8C1157 347.5 1155.8 389.5 1153.3 403.6C1152.8 406.5 1151.6 412.3 1149.9 420.1H1210.3C1213.4 381 1215.7 340 1216.4 300.4C1217.2 258.6 1216.1 218.4 1212.2 183.4C1203.9 203.2 1194.7 223.1 1186.3 240.7Z" fill="#EAF0F9"/>
<path d="M1333.7 402.4C1331.2 388.3 1330 346.4 1329.4 319.6C1329.1 305.9 1329 296.2 1329 296.2C1329 296.2 1316.2 272 1300.7 239.5C1292.3 222 1283.1 202 1274.8 182.2C1270.9 217.1 1269.9 257.4 1270.6 299.2C1271.3 339.2 1273.6 380.6 1276.7 419.9H1337.3C1335.5 411.7 1334.2 405.5 1333.7 402.4Z" fill="#EAF0F9"/>
<path d="M1216.4 300.3L1188 244.1L1186.2 240.6L1196.9 211.2L1181.5 195.1L1212.2 183.3C1216.1 218.3 1217.2 258.5 1216.4 300.3Z" fill="#D8E4F4"/>
<path d="M1270.6 299.3L1299 243.1L1300.8 239.6L1290.1 210.2L1305.5 194.1L1274.8 182.3C1270.9 217.2 1269.9 257.5 1270.6 299.3Z" fill="#D8E4F4"/>
<path d="M1392.5 312.4L1340.5 347.7L1352.4 371.1L1316.2 420.1H1386.2L1406.2 399.1C1416.7 388.1 1419.5 371.8 1413.2 357.9L1392.5 312.4Z" fill="#FABCA3"/>
<path d="M1221.7 145.9C1205.7 148 1199.7 133.5 1189.5 117.7C1179.3 101.9 1174.1 82.3001 1191.7 78.4001C1188.7 54.6001 1198.9 27.3001 1243.5 31.0001C1288.1 34.7001 1303.3 66.6001 1297 86.3001C1290.7 105.9 1282.6 113.8 1278.4 126.4C1274.2 139 1266.4 146.2 1266.4 146.2" fill="#2B3378"/>
<path d="M1274.8 182.3C1274.8 182.3 1269.3 202.7 1244.4 202.7C1219.5 202.7 1212.2 183.3 1212.2 183.3L1218.5 179.9C1218.5 179.9 1220.1 163.8 1218.1 145.9C1217.8 143 1217.4 140.1 1216.9 137.1L1224.7 137.5L1268.8 140C1264.3 146 1265.1 163.7 1265.9 173.1C1266.2 176.8 1266.5 179.2 1266.5 179.2L1274.8 182.3Z" fill="#FABCA3"/>
<path opacity="0.49" d="M1265.9 173.3C1258 171.4 1229.5 167.9 1218.1 145.9L1224.7 137.6L1268.8 140.1C1264.4 146.2 1265.1 163.9 1265.9 173.3Z" fill="#F47D6F"/>
<path opacity="0.49" d="M1286.74 117.699C1287.71 112.43 1286.39 107.77 1283.78 107.289C1281.17 106.809 1278.27 110.691 1277.3 115.96C1276.33 121.229 1277.66 125.889 1280.27 126.369C1282.87 126.849 1285.77 122.967 1286.74 117.699Z" fill="#F47D6F"/>
<path d="M1209.7 98.0002C1208.8 106.4 1209.7 120.6 1209.7 120.6C1209.7 120.6 1203.9 104 1196.1 106.5C1188.2 109 1191.9 126.8 1198.5 128.6C1205 130.4 1208.3 128.1 1208.3 128.1C1208.3 128.1 1218.1 160.7 1248 160.7C1277.9 160.7 1283.7 130.6 1282.3 119.3C1280.9 108 1283.3 88.8002 1283.3 88.8002L1268.5 74.7002C1268.5 74.7002 1249.2 99.4002 1209.7 98.0002Z" fill="#FABCA3"/>
<path d="M966.9 212.1C966.9 212.1 956.5 223.2 947.9 259.8C939.4 296.4 934.1 326.4 937.1 352.1C938.9 367.2 948.1 397.4 958 420H1004.2L983.8 345.7L997.4 242.9L966.9 212.1Z" fill="white"/>
<path d="M1030.1 187.5C1027.3 186.8 1023.8 190.4 1022.4 192C1021 193.6 1019.8 195.3 1018.7 197.1C1018.1 198 1017.7 198.9 1017.1 199.9L1016.3 201.3C1016.1 201.8 1015.9 202.3 1015.7 202.7C1015.3 203.7 1014.8 204.6 1014.4 205.6L1013.4 208.6C1013.2 209.1 1013 209.6 1012.9 210.1L1012.5 211.6L1011.7 214.7C1011.3 216.7 1010.9 218.7 1010.5 220.8C1009 228.9 1007.9 237.1 1007.1 245.3C1006.7 249.4 1006.3 253.5 1006 257.6L1011.4 257.9C1011.6 253.8 1011.8 249.8 1012.2 245.7C1012.8 237.6 1013.7 229.5 1014.8 221.5C1015.1 219.5 1015.4 217.5 1015.7 215.5L1016.3 212.6L1016.6 211.1C1016.7 210.6 1016.9 210.1 1017 209.7L1017.8 206.8C1018.1 205.9 1018.5 205 1018.8 204C1019 203.5 1019.1 203.1 1019.3 202.6L1019.9 201.3C1020.3 200.4 1020.7 199.5 1021.2 198.7C1025.1 191.2 1033.3 184.7 1030.1 187.5Z" fill="#586CB3"/>
<path d="M1020.96 265.097C1021.1 257.588 1015.13 251.383 1007.62 251.238C1000.11 251.094 993.907 257.064 993.762 264.574C993.618 272.083 999.588 278.288 1007.1 278.433C1014.61 278.577 1020.81 272.607 1020.96 265.097Z" fill="#586CB3"/>
<path d="M1016.16 265.005C1016.25 260.146 1012.39 256.131 1007.53 256.038C1002.67 255.944 998.655 259.807 998.561 264.667C998.468 269.526 1002.33 273.541 1007.19 273.634C1012.05 273.728 1016.06 269.865 1016.16 265.005Z" fill="#2B3378"/>
<path d="M1081.2 180.5C1081.2 180.5 1082.8 217.7 1081.8 247.5C1081 272 1067 343.9 1067 343.9L1101.7 266.6L1094.5 255.5L1104.2 253C1104.1 253.1 1108 220.7 1081.2 180.5Z" fill="#D8E1F3"/>
<path opacity="0.49" d="M1059.4 180.9C1066.8 181 1073.6 178.3 1079.3 173.9C1077.8 163.6 1078.4 154.6 1078.4 154.6L1059.1 154.5L1039.9 153.9C1039.9 153.9 1040.2 162 1038.5 172C1044.3 177.3 1051.4 180.8 1059.4 180.9Z" fill="#F47D6F"/>
<path d="M1134.8 282.5L1120.3 276.5L1124 338.7L1044.2 348.1L1139.3 354.3L1134.8 282.5Z" fill="#EDEFF8"/>
<path opacity="0.39" d="M1006.1 364.2L1002.5 370.7C1002.5 370.7 1012.1 372.9 1019.9 374.8C1024.6 375.9 1029.9 380 1029.9 380C1029.9 380 1029.2 397 1034.8 398.9C1043 401.6 1132.6 426.5 1165.3 402.7C1197.9 379 1122.6 383.8 1122.6 383.8L1006.1 364.2Z" fill="#A7BAE0"/>
<path opacity="0.39" d="M1098.9 349.8L1097.6 341.5C1097.6 341.5 1032.1 347.9 1026.9 346.9C1021.7 346 1042 355.2 1042 355.2L1098.9 349.8Z" fill="#A7BAE0"/>
<path d="M1086.3 187.9C1088.2 187.4 1090.7 189.9 1091.6 191C1092.5 192.1 1093.4 193.3 1094.2 194.5C1094.6 195.1 1094.9 195.8 1095.3 196.4L1095.8 197.4C1096 197.7 1096.1 198.1 1096.3 198.4C1096.6 199.1 1096.9 199.7 1097.2 200.4L1097.9 202.5C1098 202.8 1098.2 203.2 1098.2 203.5L1098.5 204.6L1099 206.7C1099.3 208.1 1099.6 209.5 1099.9 210.9C1101 216.5 1101.8 222.1 1102.4 227.8C1102.7 230.6 1103 233.4 1103.2 236.3L1099.5 236.6C1099.3 233.8 1099.2 231 1098.9 228.2C1098.4 222.6 1097.8 217 1097 211.5C1096.8 210.1 1096.6 208.7 1096.3 207.4L1095.9 205.4L1095.7 204.4C1095.6 204.1 1095.5 203.7 1095.4 203.4L1094.8 201.4C1094.6 200.8 1094.3 200.1 1094.1 199.5C1094 199.2 1093.9 198.9 1093.7 198.6L1093.2 197.7C1092.9 197.1 1092.6 196.5 1092.3 195.9C1089.8 190.5 1084.1 186 1086.3 187.9Z" fill="#586CB3"/>
<path d="M1120.9 259.5C1120.3 256.7 1119.7 253.9 1118.9 251.1C1118.5 249.7 1118.1 248.3 1117.7 247C1117.5 246.3 1117.3 245.6 1117 244.9L1116.6 243.8L1116 242.8C1114.4 240.1 1112 238.2 1109.4 236.7C1108.1 236 1106.7 235.4 1105.3 234.9C1103.9 234.4 1102.5 234 1101 233.4L1100.9 233.9L1100.8 233.4C1099.3 234.1 1098 234.6 1096.6 235.1C1095.2 235.7 1093.9 236.3 1092.7 237.1C1090.2 238.7 1087.8 240.7 1086.4 243.5L1085.9 244.5L1085.5 245.6C1085.2 246.3 1085.1 247 1084.9 247.7C1084.6 249.1 1084.2 250.5 1083.9 251.9C1083.3 254.7 1082.8 257.5 1082.3 260.4C1081.5 266.1 1081 271.8 1081.5 277.6C1081.6 278.3 1081.6 279 1081.7 279.8C1081.8 280.5 1082 281.3 1082.2 282C1082.6 283.4 1083.2 284.8 1084 286.1C1084.8 287.4 1086.9 289.7 1086.9 289.7L1090.1 293.1C1091.2 294.1 1092.9 293.7 1093.4 292.3L1094 290.6C1094.5 289.2 1093.5 287.7 1092 287.8L1088.6 287.9C1088.1 287.9 1087.6 287.7 1087.2 287.3C1086.5 286.6 1085.9 285.9 1085.4 285.1C1084.7 284 1084.1 282.7 1083.8 281.5C1083.6 280.9 1083.5 280.2 1083.4 279.5C1083.3 278.8 1083.3 278.1 1083.2 277.4C1082.8 271.8 1083.3 266.2 1084.2 260.6C1084.6 257.8 1085.2 255 1085.8 252.3C1086.1 250.9 1086.4 249.6 1086.8 248.2C1087 247.5 1087.1 246.8 1087.4 246.2L1087.7 245.3L1088.2 244.4C1089.4 242.1 1091.5 240.3 1093.8 238.8C1095 238.1 1096.2 237.5 1097.5 237C1098.6 236.5 1099.8 236.1 1101 236.1C1102.2 236.1 1103.4 236.4 1104.6 236.8C1105.9 237.3 1107.1 237.8 1108.4 238.4C1110.8 239.7 1112.9 241.4 1114.3 243.7L1114.8 244.5L1115.2 245.4C1115.5 246 1115.7 246.7 1115.9 247.3C1116.3 248.6 1116.7 250 1117.1 251.4C1117.9 254.1 1118.6 256.9 1119.1 259.6C1120.2 265.1 1121.1 270.7 1121 276.3C1121 277 1121 277.7 1120.9 278.4C1120.9 279.1 1120.7 279.7 1120.6 280.4C1120.3 281.7 1119.8 283 1119.2 284.1C1118.7 284.9 1118.2 285.7 1117.5 286.4C1117.2 286.8 1116.7 287 1116.1 287L1112.8 287.1C1111.3 287.1 1110.4 288.7 1111 290L1111.7 291.6C1112.3 292.9 1114 293.2 1115.1 292.2L1118.1 288.6C1118.1 288.6 1120.1 286.2 1120.8 284.8C1121.5 283.5 1122.1 282.1 1122.4 280.6C1122.6 279.9 1122.7 279.1 1122.7 278.4C1122.8 277.7 1122.8 276.9 1122.8 276.2C1122.8 270.9 1122 265.1 1120.9 259.5Z" fill="#586CB3"/>
<path d="M1032.6 187.4C1019.1 194.2 976.8 197.7 966.9 212.1C941.7 248.8 966.4 391.8 966.4 391.8L962.3 419.9H1058.2C1058.6 380.8 1059.7 344.7 1059.7 344.7L1026.9 267.6C1027 267.5 1036.4 185.5 1032.6 187.4Z" fill="#F6F8FC"/>
<path d="M1099.2 121.9C1098.7 149.1 1082.4 173.5 1059.5 173.1C1036.6 172.7 1021.2 147.8 1021.7 120.6C1022.2 93.4002 1038.4 74.1002 1061.3 74.5002C1084.1 74.8002 1099.7 94.7002 1099.2 121.9Z" fill="#FABCA3"/>
<path d="M1038.5 74C1038.5 74 1040.1 95 1068.2 100.8C1096.3 106.5 1097.8 113 1099.2 121.9C1100.5 130.9 1102.2 140.1 1114.5 149.8C1126.8 159.5 1142.3 135.2 1142.3 135.2C1142.3 135.2 1130.4 132.4 1127.4 115.9C1124.4 99.4 1122.2 57.7 1086.2 48.9C1050.3 40.1 1036.8 58.2 1038.5 74Z" fill="#2B3378"/>
<path d="M1049.2 82.9998C1049.2 82.9998 1045.5 107.9 1025.7 111.1C1016.7 112.6 1016 122.7 1017.8 133.3C1018.8 139 1011.6 142.2 1008 137.8L992.4 119C992.4 119 1000.7 110.9 1000.9 102.7C1001 94.4998 1014.6 52.3998 1044.6 61.4998C1074.7 70.6998 1049.2 82.9998 1049.2 82.9998Z" fill="#2B3378"/>
<path d="M1027.5 111.9C1027.5 111.9 1021.1 105.5 1017 109.4C1010.3 115.8 1012.9 137.2 1026.8 132.9" fill="#FABCA3"/>
<path d="M1093.9 113C1093.9 113 1100.6 106.9 1104.4 110.9C1110.8 117.6 1107.5 138.8 1093.8 134" fill="#FABCA3"/>
<path d="M1161 388C1156.1 366.9 1156.5 247.1 1156.5 247.1C1156.5 247.1 1154.5 221.6 1149.2 215.3C1138.2 202.3 1086 189.4 1086 189.4C1086 189.4 1091.6 254.2 1087.3 273.4C1083 292.6 1067.5 343.9 1067.5 343.9C1067.5 343.9 1068.4 382.7 1070 419.9H1167.7C1164.7 405.2 1162.2 393.3 1161 388Z" fill="white"/>
<path d="M1081.2 180.5C1081.2 180.5 1082.8 217.7 1081.8 247.5C1081 272 1067 343.9 1067 343.9L1101.7 266.6L1094.5 255.5L1104.2 253C1104.1 253.1 1108 220.7 1081.2 180.5Z" fill="#EAF0F9"/>
<path d="M1035.9 181.8C1035.9 181.8 1033.2 216.9 1034.6 246.7C1035.9 276.8 1059.9 344.6 1059.9 344.6L1014.6 265.1L1022.2 254.3L1012.6 251.5C1012.6 251.5 1001.1 219.5 1035.9 181.8Z" fill="#EAF0F9"/>
<path d="M977.6 280.6L1001.1 420H1084.8L1110.3 415.7L1087.1 278.3H991.1L977.6 280.6Z" fill="#272461"/>
<path d="M986.2 284L1009.2 420H1040.7L1100.6 409.9L1076.8 268.7L986.2 284Z" fill="#F6F8FC"/>
<path d="M1032.2 372.8C1032.2 372.8 1030.5 393.1 1037.7 394.6C1044.9 396.2 1050.6 381.6 1050.6 381.6L1032.2 372.8Z" fill="#A7BAE0"/>
<path d="M1114.9 230.6L1149.2 215.3C1149.2 215.3 1158.3 219.3 1170.3 262.7C1182.3 306.2 1199.9 353.5 1182.1 387.6C1164.3 421.6 1092.1 407 1024 372.1C1024 372.1 996.6 373.5 986.6 364.5C976.6 355.4 977.8 319.8 982.9 321.8C988 323.8 1002.4 332.3 1002.4 332.3C1002.4 332.3 997.8 315.6 1005.5 312.4C1005.5 312.4 1006.5 320.1 1011.6 324.3C1016.8 328.5 1024.1 336.5 1024.6 343.3C1024.6 343.3 1025 347.9 1031.7 347.6C1038.5 347.3 1137.9 352.3 1137.9 352.3L1114.9 230.6Z" fill="#F47D6F"/>
<path d="M1043.8 381.6C1105.5 409.3 1166 418.3 1182.1 387.5C1199.9 353.5 1182.2 306.1 1170.3 262.6C1158.3 219.1 1149.2 215.2 1149.2 215.2L1112.3 230.5L1120.4 271.2L1135.5 347C1135.5 347 1068.2 348 1041.8 347.6C1041.8 347.7 1046 367.3 1043.8 381.6Z" fill="white"/>
<path d="M1161.3 395.2L1165.2 402.7C1165.2 402.7 1112.6 419.5 1037.7 394.6C1037.7 394.6 1044.2 393.9 1044 380.5C1043.8 367.1 1049.6 359.9 1049.6 359.9L1089.5 372.8L1161.3 395.2Z" fill="#EDEFF8"/>
<path d="M1061.94 262.541L998.827 273.19L1001.16 286.996L1064.27 276.346L1061.94 262.541Z" fill="#272461"/>
<path d="M1030.1 187.4C1027.3 186.7 1023.8 190.3 1022.4 191.9C1021 193.5 1019.8 195.2 1018.7 197C1018.1 197.9 1017.7 198.8 1017.1 199.8L1016.3 201.2C1016.1 201.7 1015.9 202.2 1015.7 202.6C1015.3 203.6 1014.8 204.5 1014.4 205.5L1013.4 208.5C1013.2 209 1013 209.5 1012.9 210L1012.5 211.5L1011.7 214.6C1011.3 216.6 1010.9 218.6 1010.5 220.7C1009 228.8 1007.9 237 1007.1 245.2C1006.7 249.3 1006.3 253.4 1006 257.5L1011.4 257.8C1011.6 253.7 1011.8 249.7 1012.2 245.6C1012.8 237.5 1013.7 229.4 1014.8 221.4C1015.1 219.4 1015.4 217.4 1015.7 215.4L1016.3 212.5L1016.6 211C1016.7 210.5 1016.9 210 1017 209.6L1017.8 206.7C1018.1 205.8 1018.5 204.9 1018.8 203.9C1019 203.4 1019.1 203 1019.3 202.5L1019.9 201.2C1020.3 200.3 1020.7 199.4 1021.2 198.6C1025.1 191.2 1033.3 184.7 1030.1 187.4Z" fill="#586CB3"/>
<path d="M1020.89 265.067C1021.03 257.557 1015.06 251.352 1007.55 251.207C1000.04 251.063 993.836 257.033 993.692 264.543C993.547 272.052 999.518 278.257 1007.03 278.402C1014.54 278.547 1020.74 272.576 1020.89 265.067Z" fill="#586CB3"/>
<path d="M1016.09 264.975C1016.18 260.116 1012.32 256.101 1007.46 256.007C1002.6 255.913 998.584 259.777 998.491 264.636C998.397 269.495 1002.26 273.51 1007.12 273.603C1011.98 273.697 1015.99 269.834 1016.09 264.975Z" fill="#2B3378"/>
<path d="M1086.3 187.9C1088.2 187.4 1090.7 189.9 1091.6 191C1092.5 192.1 1093.4 193.3 1094.2 194.5C1094.6 195.1 1094.9 195.8 1095.3 196.4L1095.8 197.4C1096 197.7 1096.1 198.1 1096.3 198.4C1096.6 199.1 1096.9 199.7 1097.2 200.4L1097.9 202.5C1098 202.8 1098.2 203.2 1098.2 203.5L1098.5 204.6L1099 206.7C1099.3 208.1 1099.6 209.5 1099.9 210.9C1101 216.5 1101.8 222.1 1102.4 227.8C1102.7 230.6 1103 233.4 1103.2 236.3L1099.5 236.6C1099.3 233.8 1099.2 231 1098.9 228.2C1098.4 222.6 1097.8 217 1097 211.5C1096.8 210.1 1096.6 208.7 1096.3 207.4L1095.9 205.4L1095.7 204.4C1095.6 204.1 1095.5 203.7 1095.4 203.4L1094.8 201.4C1094.6 200.8 1094.3 200.1 1094.1 199.5C1094 199.2 1093.9 198.9 1093.7 198.6L1093.2 197.7C1092.9 197.1 1092.6 196.5 1092.3 195.9C1089.8 190.4 1084.1 186 1086.3 187.9Z" fill="#586CB3"/>
<path d="M1120.9 259.5C1120.3 256.7 1119.7 253.9 1118.9 251.1C1118.5 249.7 1118.1 248.3 1117.7 247C1117.5 246.3 1117.3 245.6 1117 244.9L1116.6 243.8L1116 242.8C1114.4 240.1 1112 238.2 1109.4 236.7C1108.1 236 1106.7 235.4 1105.3 234.9C1103.9 234.4 1102.5 234 1101 233.4L1100.9 233.9L1100.8 233.4C1099.3 234.1 1098 234.6 1096.6 235.1C1095.2 235.7 1093.9 236.3 1092.7 237.1C1090.2 238.7 1087.8 240.7 1086.4 243.5L1085.9 244.5L1085.5 245.6C1085.2 246.3 1085.1 247 1084.9 247.7C1084.6 249.1 1084.2 250.5 1083.9 251.9C1083.3 254.7 1082.8 257.5 1082.3 260.4C1081.5 266.1 1081 271.8 1081.5 277.6C1081.6 278.3 1081.6 279 1081.7 279.8C1081.8 280.5 1082 281.3 1082.2 282C1082.6 283.4 1083.2 284.8 1084 286.1C1084.8 287.4 1086.9 289.7 1086.9 289.7L1090.1 293.1C1091.2 294.1 1092.9 293.7 1093.4 292.3L1094 290.6C1094.5 289.2 1093.5 287.7 1092 287.8L1088.6 287.9C1088.1 287.9 1087.6 287.7 1087.2 287.3C1086.5 286.6 1085.9 285.9 1085.4 285.1C1084.7 284 1084.1 282.7 1083.8 281.5C1083.6 280.9 1083.5 280.2 1083.4 279.5C1083.3 278.8 1083.3 278.1 1083.2 277.4C1082.8 271.8 1083.3 266.2 1084.2 260.6C1084.6 257.8 1085.2 255 1085.8 252.3C1086.1 250.9 1086.4 249.6 1086.8 248.2C1087 247.5 1087.1 246.8 1087.4 246.2L1087.7 245.3L1088.2 244.4C1089.4 242.1 1091.5 240.3 1093.8 238.8C1095 238.1 1096.2 237.5 1097.5 237C1098.6 236.5 1099.8 236.1 1101 236.1C1102.2 236.1 1103.4 236.4 1104.6 236.8C1105.9 237.3 1107.1 237.8 1108.4 238.4C1110.8 239.7 1112.9 241.4 1114.3 243.7L1114.8 244.5L1115.2 245.4C1115.5 246 1115.7 246.7 1115.9 247.3C1116.3 248.6 1116.7 250 1117.1 251.4C1117.9 254.1 1118.6 256.9 1119.1 259.6C1120.2 265.1 1121.1 270.7 1121 276.3C1121 277 1121 277.7 1120.9 278.4C1120.9 279.1 1120.7 279.7 1120.6 280.4C1120.3 281.7 1119.8 283 1119.2 284.1C1118.7 284.9 1118.2 285.7 1117.5 286.4C1117.2 286.8 1116.7 287 1116.1 287L1112.8 287.1C1111.3 287.1 1110.4 288.7 1111 290L1111.7 291.6C1112.3 292.9 1114 293.2 1115.1 292.2L1118.1 288.6C1118.1 288.6 1120.1 286.2 1120.8 284.8C1121.5 283.5 1122.1 282.1 1122.4 280.6C1122.6 279.9 1122.7 279.1 1122.7 278.4C1122.8 277.7 1122.8 276.9 1122.8 276.2C1122.8 270.8 1122 265.1 1120.9 259.5Z" fill="#586CB3"/>
</g>
<defs>
<clipPath id="clip0">
<rect width="1440" height="420" fill="white"/>
</clipPath>
</defs>
</svg>